<?xml version="1.0" standalone="no"?>
<!DOCTYPE svg PUBLIC "-//W3C//DTD SVG 20010904//EN"
 "http://www.w3.org/TR/2001/REC-SVG-20010904/DTD/svg10.dtd">
<svg version="1.0" xmlns="http://www.w3.org/2000/svg"
 width="618.000000pt" height="618.000000pt" viewBox="0 0 618.000000 618.000000"
 preserveAspectRatio="xMidYMid meet">
<metadata>
Created by potrace 1.14, written by Peter Selinger 2001-2017
</metadata>
<g transform="translate(0.000000,618.000000) scale(0.100000,-0.100000)"
fill="#000000" stroke="none">
<path d="M395 6154 c-22 -14 -80 -66 -130 -114 -50 -49 -117 -115 -150 -147
-33 -32 -70 -71 -81 -88 -45 -67 -18 -172 55 -213 56 -32 131 -27 170 10 l21
19 1 -48 c0 -39 -1 -196 -2 -238 0 -5 0 -219 0 -475 0 -256 0 -472 0 -480 0
-8 0 -224 0 -480 0 -256 0 -472 0 -480 0 -8 0 -224 0 -480 0 -256 0 -472 0
-480 0 -8 0 -224 0 -480 0 -256 0 -472 0 -480 -4 -230 5 -985 12 -1012 11 -41
37 -71 84 -95 27 -15 287 -16 2668 -16 l2637 0 -17 -26 c-9 -14 -31 -44 -48
-66 -85 -107 -72 -215 32 -269 87 -44 167 -1 263 144 8 12 20 28 25 34 6 6 33
43 60 81 27 39 54 75 60 81 5 6 21 27 35 47 14 20 28 37 33 37 4 0 7 6 7 14 0
7 7 19 15 26 21 17 29 92 15 135 -12 38 -47 75 -199 215 -157 144 -165 151
-193 166 -33 17 -93 20 -128 6 -53 -21 -98 -86 -95 -137 1 -11 2 -32 3 -47 1
-16 20 -45 51 -77 l49 -51 -2411 0 -2410 0 59 46 c65 50 120 94 138 109 6 6
54 44 106 85 52 41 100 79 107 85 15 12 5 5 168 133 72 57 139 111 150 120 11
9 58 47 105 83 63 49 465 368 575 456 6 5 86 69 180 143 93 74 206 164 251
200 45 36 94 75 110 87 16 13 40 32 54 43 14 11 88 70 165 131 77 61 156 123
175 139 42 34 194 155 241 192 36 28 203 160 229 181 75 59 117 93 125 100 6
4 53 41 105 83 52 41 108 85 123 97 16 12 38 30 50 41 12 10 38 30 57 45 19
14 40 31 46 36 6 6 26 21 44 35 40 30 91 71 110 88 8 7 65 51 125 98 61 48
112 89 115 93 4 5 93 74 145 113 6 4 31 25 56 45 70 58 507 404 553 438 22 16
51 40 64 52 14 13 28 20 32 18 5 -3 11 -29 15 -58 11 -80 13 -87 33 -120 77
-133 282 -82 284 70 0 26 -2 66 -6 88 -21 119 -48 284 -51 315 -3 19 -7 46
-10 60 -3 14 -7 39 -9 56 -6 55 -43 109 -86 126 -52 21 -68 22 -240 13 -333
-16 -325 -15 -371 -65 -72 -79 -57 -183 36 -240 27 -17 47 -21 99 -18 70 3 89
-4 58 -21 -11 -6 -26 -17 -34 -23 -7 -7 -31 -26 -53 -42 -22 -17 -42 -33 -45
-36 -3 -3 -48 -39 -100 -80 -52 -41 -97 -77 -100 -80 -3 -3 -81 -66 -175 -139
-93 -74 -171 -138 -173 -143 -2 -4 -8 -8 -13 -8 -9 0 -44 -27 -81 -62 -10 -10
-22 -18 -27 -18 -5 0 -11 -3 -13 -8 -1 -4 -23 -23 -48 -42 -25 -19 -47 -37
-50 -40 -3 -3 -48 -39 -100 -80 -52 -40 -97 -76 -100 -80 -3 -3 -23 -19 -45
-35 -22 -17 -42 -32 -45 -35 -3 -3 -36 -30 -75 -60 -38 -30 -77 -61 -86 -69
-9 -9 -29 -25 -45 -36 -15 -11 -55 -42 -89 -70 -34 -27 -77 -61 -95 -75 -18
-14 -41 -32 -50 -40 -62 -52 -105 -86 -119 -94 -9 -5 -22 -16 -29 -23 -8 -7
-30 -26 -50 -41 -21 -15 -39 -29 -42 -32 -3 -3 -41 -34 -85 -68 -44 -35 -96
-76 -115 -91 -19 -16 -161 -128 -315 -250 -259 -206 -315 -251 -365 -291 -10
-8 -50 -40 -89 -70 -39 -30 -71 -58 -71 -62 0 -5 -7 -8 -15 -8 -8 0 -15 -3
-15 -7 0 -5 -17 -19 -37 -33 -20 -14 -41 -30 -47 -36 -6 -5 -123 -99 -261
-208 -137 -109 -259 -205 -270 -214 -11 -9 -40 -33 -65 -52 -25 -19 -47 -37
-50 -40 -3 -3 -61 -50 -130 -103 -69 -54 -134 -105 -145 -115 -11 -9 -40 -32
-65 -51 -25 -19 -54 -42 -65 -52 -18 -16 -174 -140 -270 -214 -21 -16 -52 -41
-69 -55 -17 -14 -52 -42 -78 -63 l-46 -37 0 2410 c0 1326 2 2410 5 2410 4 0
158 -124 173 -140 50 -52 169 -38 219 26 41 52 45 136 8 184 -9 13 -161 143
-212 183 -5 4 -21 17 -35 28 -14 12 -45 37 -69 57 -25 21 -58 49 -75 63 -75
64 -149 75 -211 33z"/>
</g>
</svg>
