<?xml version="1.0" encoding="UTF-8" standalone="no"?>
<svg
   xmlns:dc="http://purl.org/dc/elements/1.1/"
   xmlns:cc="http://creativecommons.org/ns#"
   xmlns:rdf="http://www.w3.org/1999/02/22-rdf-syntax-ns#"
   xmlns:svg="http://www.w3.org/2000/svg"
   xmlns="http://www.w3.org/2000/svg"
   xmlns:sodipodi="http://sodipodi.sourceforge.net/DTD/sodipodi-0.dtd"
   xmlns:inkscape="http://www.inkscape.org/namespaces/inkscape"
   width="427.03748mm"
   height="180.97499mm"
   viewBox="0 0 427.03748 180.97499"
   version="1.1"
   id="svg8"
   inkscape:version="1.0.2-2 (e86c870879, 2021-01-15)"
   sodipodi:docname="logo.svg">
  <defs
     id="defs2" />
  <sodipodi:namedview
     id="base"
     pagecolor="#ffffff"
     bordercolor="#666666"
     borderopacity="1.0"
     inkscape:pageopacity="0.0"
     inkscape:pageshadow="2"
     inkscape:zoom="0.7"
     inkscape:cx="653.80292"
     inkscape:cy="424.33042"
     inkscape:document-units="mm"
     inkscape:current-layer="layer1"
     inkscape:document-rotation="0"
     showgrid="false"
     inkscape:window-width="3840"
     inkscape:window-height="2081"
     inkscape:window-x="-9"
     inkscape:window-y="-9"
     inkscape:window-maximized="1"
     fit-margin-top="0"
     fit-margin-left="0"
     fit-margin-right="0"
     fit-margin-bottom="0" />
  <metadata
     id="metadata5">
    <rdf:RDF>
      <cc:Work
         rdf:about="">
        <dc:format>image/svg+xml</dc:format>
        <dc:type
           rdf:resource="http://purl.org/dc/dcmitype/StillImage" />
        <dc:title></dc:title>
      </cc:Work>
    </rdf:RDF>
  </metadata>
  <g
     inkscape:label="Layer 1"
     inkscape:groupmode="layer"
     id="layer1"
     transform="translate(134.48392,-48.702237)">
    <path
       style="fill:#f1f4ff;fill-opacity:1;stroke-width:0.264583"
       d="m 221.11607,228.88348 v -0.79375 h -1.5875 -1.5875 v -0.79375 c 0,-0.70556 -0.0882,-0.79375 -0.79375,-0.79375 h -0.79375 v -3.96875 -3.96875 h 0.79375 c 0.70556,0 0.79375,-0.0882 0.79375,-0.79375 v -0.79375 h 3.96875 3.96875 v -1.5875 -1.5875 h 0.79375 0.79375 v -11.1125 -11.1125 h -0.79375 c -0.70556,0 -0.79375,-0.0882 -0.79375,-0.79375 v -0.79375 h -4.7625 -4.7625 v -0.79375 -0.79375 h -1.5875 -1.5875 v -0.79375 c 0,-0.70556 -0.0882,-0.79375 -0.79375,-0.79375 -0.70556,0 -0.79375,-0.0882 -0.79375,-0.79375 0,-0.70556 -0.0882,-0.79375 -0.79375,-0.79375 -0.70556,0 -0.79375,-0.0882 -0.79375,-0.79375 0,-0.70556 -0.0882,-0.79375 -0.79375,-0.79375 h -0.79375 v -8.73125 -8.73125 h 0.79375 0.79375 v -3.175 -3.175 h 0.79375 0.79375 v -1.5875 -1.5875 h 0.79375 c 0.70556,0 0.79375,-0.0882 0.79375,-0.79375 0,-0.70556 0.0882,-0.79375 0.79375,-0.79375 0.70556,0 0.79375,-0.0882 0.79375,-0.79375 0,-0.70556 0.0882,-0.79375 0.79375,-0.79375 0.70556,0 0.79375,-0.0882 0.79375,-0.79375 0,-0.70556 0.0882,-0.79375 0.79375,-0.79375 h 0.79375 v -1.5875 -1.5875 h 0.79375 c 0.70556,0 0.79375,-0.0882 0.79375,-0.79375 0,-0.70556 0.0882,-0.79375 0.79375,-0.79375 0.70556,0 0.79375,-0.0882 0.79375,-0.79375 v -0.79375 h 1.5875 1.5875 v -0.79375 -0.79375 h 1.5875 1.5875 v -0.79375 -0.79375 h 5.55625 5.55625 v 0.79375 c 0,0.70556 0.0882,0.79375 0.79375,0.79375 h 0.79375 v 3.175 3.175 h 0.79375 c 0.70556,0 0.79375,0.0882 0.79375,0.79375 0,0.70556 0.0882,0.79375 0.79375,0.79375 h 0.79375 v 11.1125 11.1125 h -0.79375 -0.79375 v 1.5875 1.5875 h -0.79375 -0.79375 v 7.9375 7.9375 h -0.79375 -0.79375 v 14.2875 14.2875 h -0.79375 -0.79375 v 2.38125 2.38125 h -0.79375 c -0.70557,0 -0.79375,0.0882 -0.79375,0.79375 0,0.70556 -0.0882,0.79375 -0.79375,0.79375 -0.70556,0 -0.79375,0.0882 -0.79375,0.79375 v 0.79375 h -6.35 -6.35 z m 4.7625,-50.8 c 0,-0.70556 0.0882,-0.79375 0.79375,-0.79375 0.70556,0 0.79375,-0.0882 0.79375,-0.79375 0,-0.70556 0.0882,-0.79375 0.79375,-0.79375 h 0.79375 v -4.7625 -4.7625 h 0.79375 0.79375 v -4.7625 -4.7625 h -0.79375 c -0.70556,0 -0.79375,0.0882 -0.79375,0.79375 0,0.70556 -0.0882,0.79375 -0.79375,0.79375 -0.70556,0 -0.79375,0.0882 -0.79375,0.79375 0,0.70556 -0.0882,0.79375 -0.79375,0.79375 -0.70556,0 -0.79375,0.0882 -0.79375,0.79375 0,0.70556 -0.0882,0.79375 -0.79375,0.79375 h -0.79375 v 1.5875 1.5875 h -0.79375 -0.79375 v 1.5875 1.5875 h -0.79375 -0.79375 v 2.38125 2.38125 h -0.79375 -0.79375 v 1.5875 1.5875 h 0.79375 c 0.70556,0 0.79375,0.0882 0.79375,0.79375 v 0.79375 h 1.5875 1.5875 v 0.79375 c 0,0.70556 0.0882,0.79375 0.79375,0.79375 0.70556,0 0.79375,-0.0882 0.79375,-0.79375 z m -358.77499,41.275 c 0,-0.70556 -0.0882,-0.79375 -0.79375,-0.79375 h -0.79375 v -1.5875 -1.5875 h 0.79375 0.79375 v -1.5875 -1.5875 h 0.79375 c 0.70556,0 0.79375,-0.0882 0.79375,-0.79375 0,-0.70556 0.0882,-0.79375 0.79375,-0.79375 0.70556,0 0.79375,-0.0882 0.79375,-0.79375 v -0.79375 h 1.5875 1.5875 v -0.79375 -0.79375 h 2.38125 2.38125 v -0.79375 -0.79375 h 1.5875 1.5875 v -0.79375 -0.79375 h 1.5875 1.5875 v -0.79375 -0.79375 h 1.5875 1.5875 v -0.79375 -0.79375 h 1.5875 1.5875 v -0.79375 -0.79375 h 2.38125 2.38125 v -0.79375 -0.79375 h 2.38125 2.381249 v -0.79375 -0.79375 h 1.5875 1.5875 v -0.79375 -0.79375 h 1.5875 1.5875 v -0.79375 c 0,-0.70556 0.08819,-0.79375 0.79375,-0.79375 0.705556,0 0.79375,-0.0882 0.79375,-0.79375 v -0.79375 h 2.38125 2.38125 v -0.79375 -0.79375 h 2.38125 2.38125 v -0.79375 -0.79375 h 1.5875 1.5875 v -0.79375 c 0,-0.70556 0.08819,-0.79375 0.79375,-0.79375 0.705556,0 0.79375,-0.0882 0.79375,-0.79375 0,-0.70556 0.08819,-0.79375 0.79375,-0.79375 0.705556,0 0.79375,-0.0882 0.79375,-0.79375 v -0.79375 h 3.174999 3.175 v -0.79375 -0.79375 h 1.5875 1.5875 v -0.79375 -0.79375 h 1.5875 1.5875 v -0.79375 -0.79375 h 1.5875 1.5875 v -0.79375 c 0,-0.70556 0.08819,-0.79375 0.79375,-0.79375 0.705556,0 0.79375,-0.0882 0.79375,-0.79375 0,-0.70556 0.08819,-0.79375 0.79375,-0.79375 0.705556,0 0.79375,-0.0882 0.79375,-0.79375 v -0.79375 h 2.38125 2.38125 v -0.79375 c 0,-0.70556 0.08819,-0.79375 0.79375,-0.79375 h 0.79375 v -9.525 -9.525 h -0.79375 -0.79375 v -15.08125 -15.08125 h -0.79375 -0.79375 v -9.525 -9.525 h -0.79375 -0.79375 v -23.812493 -23.8125 h 0.79375 0.79375 v -3.175 -3.175 h 0.79375 c 0.705556,0 0.79375,-0.0882 0.79375,-0.79375 v -0.79375 h 2.38125 2.38125 v 0.79375 c 0,0.70555 0.08819,0.79375 0.79375,0.79375 h 0.79375 v 4.7625 4.7625 h -0.79375 -0.79375 v 21.43125 21.431243 h 0.79375 0.79375 v 8.73125 8.73125 h 0.79375 0.79375 v 15.08125 15.08125 h 0.79375 0.79375 v 7.9375 7.9375 h 1.5875 1.5875 v -0.79375 -0.79375 h 1.5875 1.5875 v -0.79375 c 0,-0.70556 0.08819,-0.79375 0.79375,-0.79375 0.705556,0 0.79375,-0.0882 0.79375,-0.79375 v -0.79375 h 1.5875 1.5875 v -0.79375 -0.79375 h 1.5875 1.5875 v -0.79375 c 0,-0.70556 0.08819,-0.79375 0.79375,-0.79375 0.705556,0 0.79375,-0.0882 0.79375,-0.79375 v -0.79375 h 1.5875 1.587499 v -0.79375 c 0,-0.70556 0.08819,-0.79375 0.79375,-0.79375 0.705557,0 0.79375,-0.0882 0.79375,-0.79375 v -0.79375 h 1.5875 1.5875 v -0.79375 c 0,-0.70556 0.08819,-0.79375 0.79375,-0.79375 0.705556,0 0.79375,-0.0882 0.79375,-0.79375 0,-0.70556 0.08819,-0.79375 0.79375,-0.79375 0.705556,0 0.79375,-0.0882 0.79375,-0.79375 v -0.79375 h 2.38125 2.38125 v -0.79375 -0.79375 h 1.5875005 1.5875 v -0.79375 c 0,-0.70556 0.08819,-0.79375 0.79375,-0.79375 0.705556,0 0.79375,-0.0882 0.79375,-0.79375 v -0.79375 h 2.38125 2.3812496 v -0.79375 -0.79375 h 2.381249 2.38125 v -0.79375 -0.79375 h 1.5875 1.5875 v -0.79375 -0.79375 h 1.5875 1.5875 v -0.79375 -0.79375 h 1.5874999 1.5875 v -0.79375 -0.79375 h 1.5875 1.5875 v -0.79375 c 0,-0.70556 0.08819,-0.79375 0.79375,-0.79375 0.705556,0 0.79375,-0.0882 0.79375,-0.79375 v -0.79375 h 1.5875 1.5875 v -0.79375 -0.79375 h 2.38125 2.38125 v -0.79375 -0.79375 h 1.5875 1.5875 v -0.79375 -0.79375 h 2.38125 2.38125 v -0.79375 -0.79375 h 1.5875 1.5875 v -0.79375 c 0,-0.70556 -0.08819,-0.79375 -0.79375,-0.79375 -0.705557,0 -0.79375,-0.0882 -0.79375,-0.79375 0,-0.70556 0.08819,-0.79375 0.79375,-0.79375 0.705556,0 0.79375,0.0882 0.79375,0.79375 v 0.79375 h 2.381249 2.38125 v -0.79375 -0.79375 h 3.175 3.175 v -0.79375 -0.79375 h 1.5875 1.5875 v -0.79375 c 0,-0.70556 0.08819,-0.79375 0.79375,-0.79375 0.705557,0 0.79375,-0.0882 0.79375,-0.79375 v -0.79375 h 1.5875 1.5875 v -0.79375 -0.79375 h 1.5875 1.5875 v -0.79375 -0.79375 h 1.5875 1.5875 v -0.79375 c 0,-0.70556 -0.08819,-0.79375 -0.79375,-0.79375 -0.705557,0 -0.79375,-0.0882 -0.79375,-0.79375 v -0.79375 h -7.14375 -7.14375 v -0.79375 c 0,-0.70556 -0.08819,-0.79375 -0.79375,-0.79375 h -0.79375 v -1.5875 -1.5875 h 0.79375 c 0.705557,0 0.79375,-0.0882 0.79375,-0.79375 0,-0.70556 -0.08819,-0.79375 -0.79375,-0.79375 -0.705556,0 -0.79375,-0.0882 -0.79375,-0.79375 0,-0.70556 0.08819,-0.79375 0.79375,-0.79375 0.705557,0 0.79375,0.0882 0.79375,0.79375 0,0.70556 0.08819,0.79375 0.79375,0.79375 0.705557,0 0.79375,0.0882 0.79375,0.79375 v 0.79375 h 7.14375 7.14375 v 0.79375 0.79375 h 3.968745 3.96875 v 0.79375 c 0,0.70556 0.0882,0.79375 0.79375,0.79375 0.70556,0 0.79375,0.0882 0.79375,0.79375 0,0.70556 0.0882,0.79375 0.79375,0.79375 h 0.79375 v 1.5875 1.5875 h -0.79375 -0.79375 v 1.5875 1.5875 h -0.79375 -0.79375 v 1.5875 1.5875 h -0.79375 -0.79375 v 1.5875 1.5875 h -0.79375 -0.79375 v 1.5875 1.5875 h -2.381245 -2.38125 v -0.79375 c 0,-0.70556 -0.08819,-0.79375 -0.79375,-0.79375 -0.705557,0 -0.79375,-0.0882 -0.79375,-0.79375 0,-0.70556 0.08819,-0.79375 0.79375,-0.79375 h 0.79375 v -1.5875 -1.5875 h 0.79375 c 0.705556,0 0.79375,-0.0882 0.79375,-0.79375 v -0.79375 h -1.5875 -1.5875 v 0.79375 0.79375 h -1.5875 -1.5875 v 0.79375 0.79375 h -1.5875 -1.5875 v 0.79375 c 0,0.70556 -0.08819,0.79375 -0.79375,0.79375 -0.705556,0 -0.79375,0.0882 -0.79375,0.79375 v 0.79375 h -1.5875 -1.5875 v 0.79375 0.79375 h -3.175 -3.175 v 0.79375 0.79375 h -2.38125 -2.381249 v 0.79375 0.79375 h -1.5875 -1.5875 v 0.79375 0.79375 h -2.38125 -2.38125 v 0.79375 0.79375 h -2.38125 -2.38125 v 0.79375 c 0,0.70556 -0.08819,0.79375 -0.79375,0.79375 -0.705557,0 -0.79375,0.0882 -0.79375,0.79375 v 0.79375 h -2.38125 -2.38125 v 0.79375 c 0,0.70556 -0.08819,0.79375 -0.79375,0.79375 -0.705556,0 -0.79375,0.0882 -0.79375,0.79375 v 0.79375 h -2.38125 -2.38125 v 0.79375 c 0,0.70556 -0.08819,0.79375 -0.79375,0.79375 -0.705556,0 -0.79375,0.0882 -0.79375,0.79375 v 0.79375 h -2.3812499 -2.38125 v 0.79375 c 0,0.70556 -0.08819,0.79375 -0.79375,0.79375 -0.705556,0 -0.79375,0.0882 -0.79375,0.79375 v 0.79375 h -2.38125 -2.38124901 v 0.79375 0.79375 h -2.38124959 -2.38125 v 0.79375 c 0,0.70556 -0.08819,0.79375 -0.79375,0.79375 -0.705557,0 -0.79375,0.0882 -0.79375,0.79375 v 0.79375 h -1.5875 -1.5875 v 0.79375 0.79375 h -1.5875005 -1.5875 v 0.79375 0.79375 h -1.5875 -1.5875 v 0.79375 c 0,0.70556 -0.08819,0.79375 -0.79375,0.79375 -0.705556,0 -0.79375,0.0882 -0.79375,0.79375 v 0.79375 h -1.5875 -1.5875 v 0.79375 c 0,0.70556 -0.08819,0.79375 -0.79375,0.79375 -0.705556,0 -0.79375,0.0882 -0.79375,0.79375 v 0.79375 h -1.5875 -1.587499 v 0.79375 c 0,0.70556 -0.08819,0.79375 -0.79375,0.79375 -0.705557,0 -0.79375,0.0882 -0.79375,0.79375 0,0.70556 -0.08819,0.79375 -0.79375,0.79375 -0.705557,0 -0.79375,0.0882 -0.79375,0.79375 v 0.79375 h -1.5875 -1.5875 v 0.79375 0.79375 h -1.5875 -1.5875 v 0.79375 0.79375 h -1.5875 -1.5875 v 0.79375 0.79375 h 2.38125 2.38125 v 0.79375 0.79375 h 2.38125 2.38125 v 0.79375 0.79375 h 2.38125 2.381249 v 0.79375 0.79375 h 2.38125 2.38125 v 0.79375 0.79375 h 1.5875 1.5875 v 0.79375 0.79375 h 2.38125 2.38125 v 0.79375 0.79375 h 2.3812505 2.38125 v 0.79375 0.79375 h 2.38125 2.3812496 v 0.79375 0.79375 h 2.381249 2.38125 v 0.79375 0.79375 h 1.5875 1.5875 v 0.79375 0.79375 h 3.175 3.1749999 v 0.79375 0.79375 h 2.38125 2.38125 v 0.79375 0.79375 h 3.96875 3.96875 v 0.79375 0.79375 h 1.5875 1.5875 v 0.79375 0.79375 h 2.38125 2.38125 v 0.79375 0.79375 h 2.38125 2.38125 v 0.79375 0.79375 h 2.381249 2.38125 v 0.79375 0.79375 h 1.5875 1.5875 v 0.79375 0.79375 h 1.5875 1.5875 v 0.79375 0.79375 h 2.38125 2.38125 v 0.79375 c 0,0.70556 0.08819,0.79375 0.79375,0.79375 0.705556,0 0.79375,0.0882 0.79375,0.79375 0,0.70556 0.08819,0.79375 0.79375,0.79375 0.705556,0 0.79375,0.0882 0.79375,0.79375 0,0.70556 0.08819,0.79375 0.79375,0.79375 h 0.79375 v 3.175 3.175 h -0.79375 c -0.705556,0 -0.79375,0.0882 -0.79375,0.79375 v 0.79375 h -2.38125 -2.38125 v -0.79375 c 0,-0.70556 -0.08819,-0.79375 -0.79375,-0.79375 -0.705556,0 -0.79375,-0.0882 -0.79375,-0.79375 0,-0.70556 -0.08819,-0.79375 -0.79375,-0.79375 -0.705556,0 -0.79375,-0.0882 -0.79375,-0.79375 v -0.79375 h -1.5875 -1.5875 v -0.79375 -0.79375 h -2.38125 -2.38125 v -0.79375 -0.79375 h -1.5875 -1.587499 v -0.79375 -0.79375 h -2.38125 -2.38125 v -0.79375 -0.79375 h -1.5875 -1.5875 v -0.79375 -0.79375 h -3.175 -3.175 v -0.79375 -0.79375 h -1.5875 -1.5875 v -0.79375 -0.79375 h -3.96875 -3.96875 v -0.79375 -0.79375 h -1.5875 -1.5874999 v -0.79375 -0.79375 h -3.175 -3.175 v -0.79375 -0.79375 h -2.38125 -2.381249 v -0.79375 -0.79375 h -2.3812496 -2.38125 v -0.79375 -0.79375 h -1.5875 -1.5875 v -0.79375 -0.79375 h -3.1750005 -3.175 v -0.79375 -0.79375 h -1.5875 -1.5875 v -0.79375 -0.79375 h -2.38125 -2.38125 v -0.79375 -0.79375 h -2.381249 -2.38125 v -0.79375 -0.79375 h -1.5875 -1.5875 v -0.79375 -0.79375 h -3.175 -3.175 v -0.79375 -0.79375 h -2.38125 -2.38125 v -0.79375 -0.79375 h -1.5875 -1.5875 v 0.79375 c 0,0.70556 -0.08819,0.79375 -0.79375,0.79375 -0.705557,0 -0.79375,0.0882 -0.79375,0.79375 0,0.70556 -0.08819,0.79375 -0.79375,0.79375 -0.705557,0 -0.79375,0.0882 -0.79375,0.79375 v 0.79375 h -2.38125 -2.38125 v 0.79375 c 0,0.70556 -0.08819,0.79375 -0.79375,0.79375 -0.705556,0 -0.79375,0.0882 -0.79375,0.79375 v 0.79375 h -2.38125 -2.38125 v 0.79375 c 0,0.70556 -0.08819,0.79375 -0.79375,0.79375 -0.705556,0 -0.79375,0.0882 -0.79375,0.79375 v 0.79375 h -1.5875 -1.5875 v 0.79375 0.79375 h -1.5875 -1.5875 v 0.79375 0.79375 h -2.38125 -2.38125 v 0.79375 0.79375 h -1.5875 -1.587499 v 0.79375 c 0,0.70556 -0.08819,0.79375 -0.79375,0.79375 -0.705557,0 -0.79375,0.0882 -0.79375,0.79375 v 0.79375 h -1.5875 -1.5875 v 0.79375 0.79375 h -3.175 -3.175 v 0.79375 0.79375 h -1.5875 -1.5875 v 0.79375 c 0,0.70556 -0.08819,0.79375 -0.79375,0.79375 -0.705557,0 -0.79375,0.0882 -0.79375,0.79375 v 0.79375 h -1.5875 -1.5875 v 0.79375 c 0,0.70556 -0.08819,0.79375 -0.79375,0.79375 -0.705556,0 -0.79375,0.0882 -0.79375,0.79375 v 0.79375 h -2.38125 -2.381249 v 0.79375 0.79375 h -1.5875 -1.5875 v 0.79375 0.79375 h -1.5875 -1.5875 v 0.79375 0.79375 h -1.5875 -1.5875 v 0.79375 0.79375 h -2.38125 -2.38125 v 0.79375 0.79375 h -1.5875 -1.5875 v 0.79375 0.79375 h -1.5875 -1.5875 v 0.79375 0.79375 h -1.5875 -1.5875 v 0.79375 0.79375 h -1.5875 -1.5875 v 0.79375 0.79375 h -2.38125 -2.38125 z m 393.69999,-19.05 v -0.79375 h -2.38125 -2.38125 v -0.79375 c 0,-0.70556 -0.0882,-0.79375 -0.79375,-0.79375 -0.70557,0 -0.79375,-0.0882 -0.79375,-0.79375 0,-0.70556 -0.0882,-0.79375 -0.79375,-0.79375 -0.70557,0 -0.79375,-0.0882 -0.79375,-0.79375 0,-0.70556 -0.0882,-0.79375 -0.79375,-0.79375 h -0.79375 v -1.5875 -1.5875 h -0.79375 -0.79375 v -1.5875 -1.5875 h -0.79375 -0.79375 v -7.14375 -7.14375 h 0.79375 0.79375 v -1.5875 -1.5875 h 0.79375 c 0.70556,0 0.79375,-0.0882 0.79375,-0.79375 0,-0.70556 0.0882,-0.79375 0.79375,-0.79375 h 0.79375 v -1.5875 -1.5875 h 0.79375 c 0.70556,0 0.79375,-0.0882 0.79375,-0.79375 0,-0.70556 0.0882,-0.79375 0.79375,-0.79375 h 0.79375 v -1.5875 -1.5875 h 0.79375 c 0.70556,0 0.79375,-0.0882 0.79375,-0.79375 0,-0.70556 0.0882,-0.79375 0.79375,-0.79375 0.70556,0 0.79375,-0.0882 0.79375,-0.79375 0,-0.70556 0.0882,-0.79375 0.79375,-0.79375 0.70556,0 0.79375,-0.0882 0.79375,-0.79375 0,-0.70556 0.0882,-0.79375 0.79375,-0.79375 h 0.79375 v -2.38125 -2.38125 h 0.79375 c 0.70556,0 0.79375,-0.0882 0.79375,-0.79375 v -0.79375 h 5.55625 5.55625 v 0.79375 0.79375 h 3.96875 3.96875 v 0.79375 0.79375 h 1.5875 1.5875 v 0.79375 c 0,0.70556 0.0882,0.79375 0.79375,0.79375 h 0.79375 v 1.5875 1.5875 h 0.79375 0.79375 v 2.38125 2.38125 h 0.79375 0.79375 v 8.73125 8.73125 h -0.79375 -0.79375 v 1.5875 1.5875 h -0.79375 c -0.70557,0 -0.79375,0.0882 -0.79375,0.79375 0,0.70556 -0.0882,0.79375 -0.79375,0.79375 h -0.79375 v 1.5875 1.5875 h -0.79375 -0.79375 v 1.5875 1.5875 h -0.79375 -0.79375 v 1.5875 1.5875 h -0.79375 -0.79375 v 1.5875 1.5875 h -0.79375 c -0.70557,0 -0.79375,0.0882 -0.79375,0.79375 v 0.79375 h -1.5875 -1.5875 v 0.79375 0.79375 h -7.9375 -7.9375 z m 7.9375,-11.1125 v -0.79375 h 1.5875 1.5875 v -1.5875 -1.5875 h 0.79375 0.79375 v -1.5875 -1.5875 h 0.79375 0.79375 v -1.5875 -1.5875 h 0.79375 c 0.70556,0 0.79375,-0.0882 0.79375,-0.79375 0,-0.70556 0.0882,-0.79375 0.79375,-0.79375 h 0.79375 v -1.5875 -1.5875 h 0.79375 0.79375 v -2.38125 -2.38125 h -0.79375 -0.79375 v -1.5875 -1.5875 h -0.79375 c -0.70557,0 -0.79375,-0.0882 -0.79375,-0.79375 0,-0.70556 -0.0882,-0.79375 -0.79375,-0.79375 -0.70557,0 -0.79375,-0.0882 -0.79375,-0.79375 0,-0.70556 -0.0882,-0.79375 -0.79375,-0.79375 -0.70557,0 -0.79375,0.0882 -0.79375,0.79375 0,0.70556 -0.0882,0.79375 -0.79375,0.79375 -0.70557,0 -0.79375,0.0882 -0.79375,0.79375 0,0.70556 -0.0882,0.79375 -0.79375,0.79375 -0.70557,0 -0.79375,0.0882 -0.79375,0.79375 0,0.70556 -0.0882,0.79375 -0.79375,0.79375 -0.70557,0 -0.79375,0.0882 -0.79375,0.79375 0,0.70556 -0.0882,0.79375 -0.79375,0.79375 -0.70557,0 -0.79375,0.0882 -0.79375,0.79375 0,0.70556 -0.0882,0.79375 -0.79375,0.79375 -0.70557,0 -0.79375,0.0882 -0.79375,0.79375 0,0.70556 -0.0882,0.79375 -0.79375,0.79375 h -0.79375 v 1.5875 1.5875 h -0.79375 -0.79375 v 1.5875 1.5875 h -0.79375 -0.79375 v 3.175 3.175 h 0.79375 c 0.70556,0 0.79375,0.0882 0.79375,0.79375 0,0.70556 0.0882,0.79375 0.79375,0.79375 0.70556,0 0.79375,0.0882 0.79375,0.79375 v 0.79375 h 1.5875 1.5875 v 0.79375 c 0,0.70556 0.0882,0.79375 0.79375,0.79375 0.70556,0 0.79375,-0.0882 0.79375,-0.79375 z m -131.7625,6.35 c 0,-0.70556 -0.0882,-0.79375 -0.79375,-0.79375 h -0.79375 v -3.96875 -3.96875 h -0.79375 -0.79375 v -6.35 -6.35 h -0.79375 -0.79375 v -14.2875 -14.2875 h 0.79375 0.79375 v -3.96875 -3.96875 h 0.79375 c 0.70557,0 0.79375,-0.0882 0.79375,-0.79375 v -0.79375 h 3.96875 3.96875 v 0.79375 c 0,0.70556 0.0882,0.79375 0.79375,0.79375 h 0.79375 v 7.14375 7.14375 h -0.79375 -0.79375 v 8.73125 8.73125 h 0.79375 0.79375 v 5.55625 5.55625 h 0.79375 0.79375 v 3.175 3.175 h 0.79375 0.79375 v 3.96875 3.96875 h -0.79375 c -0.70556,0 -0.79375,0.0882 -0.79375,0.79375 v 0.79375 h -4.7625 -4.7625 z m 33.3375,-6.35 v -0.79375 h -1.5875 -1.5875 v -0.79375 c 0,-0.70556 -0.0882,-0.79375 -0.79375,-0.79375 -0.70556,0 -0.79375,-0.0882 -0.79375,-0.79375 0,-0.70556 -0.0882,-0.79375 -0.79375,-0.79375 -0.70556,0 -0.79375,-0.0882 -0.79375,-0.79375 0,-0.70556 -0.0882,-0.79375 -0.79375,-0.79375 h -0.79375 v -9.525 -9.525 h 0.79375 0.79375 v -1.5875 -1.5875 h 0.79375 c 0.70557,0 0.79375,-0.0882 0.79375,-0.79375 0,-0.70556 0.0882,-0.79375 0.79375,-0.79375 h 0.79375 v -1.5875 -1.5875 h 0.79375 c 0.70557,0 0.79375,-0.0882 0.79375,-0.79375 0,-0.70556 0.0882,-0.79375 0.79375,-0.79375 h 0.79375 v -1.5875 -1.5875 h 0.79375 c 0.70557,0 0.79375,-0.0882 0.79375,-0.79375 0,-0.70556 0.0882,-0.79375 0.79375,-0.79375 0.70557,0 0.79375,-0.0882 0.79375,-0.79375 0,-0.70556 0.0882,-0.79375 0.79375,-0.79375 0.70557,0 0.79375,-0.0882 0.79375,-0.79375 0,-0.70556 0.0882,-0.79375 0.79375,-0.79375 0.70557,0 0.79375,-0.0882 0.79375,-0.79375 v -0.79375 h 1.5875 1.5875 v -0.79375 c 0,-0.70556 0.0882,-0.79375 0.79375,-0.79375 h 0.79375 v -1.5875 -1.5875 h 0.79375 c 0.70557,0 0.79375,-0.0882 0.79375,-0.79375 v -0.79375 h 6.35 6.35 v 0.79375 0.79375 h 1.5875 1.5875 v 0.79375 0.79375 h 2.38125 2.38125 v 0.79375 c 0,0.70556 0.0882,0.79375 0.79375,0.79375 0.70556,0 0.79375,0.0882 0.79375,0.79375 0,0.70556 0.0882,0.79375 0.79375,0.79375 h 0.79375 v 1.5875 1.5875 h 0.79375 0.79375 v 7.14375 7.14375 h -0.79375 -0.79375 v 2.38125 2.38125 h -0.79375 -0.79375 v 2.38125 2.38125 h -0.79375 -0.79375 v 2.38125 2.38125 h -0.79375 c -0.70556,0 -0.79375,0.0882 -0.79375,0.79375 0,0.70556 -0.0882,0.79375 -0.79375,0.79375 -0.70556,0 -0.79375,0.0882 -0.79375,0.79375 0,0.70556 -0.0882,0.79375 -0.79375,0.79375 h -0.79375 v 1.5875 1.5875 h -0.79375 c -0.70556,0 -0.79375,0.0882 -0.79375,0.79375 0,0.70556 -0.0882,0.79375 -0.79375,0.79375 -0.70556,0 -0.79375,0.0882 -0.79375,0.79375 0,0.70556 -0.0882,0.79375 -0.79375,0.79375 -0.70556,0 -0.79375,0.0882 -0.79375,0.79375 0,0.70556 -0.0882,0.79375 -0.79375,0.79375 -0.70556,0 -0.79375,0.0882 -0.79375,0.79375 v 0.79375 h -11.1125 -11.1125 z m 14.2875,-11.1125 c 0,-0.70556 0.0882,-0.79375 0.79375,-0.79375 0.70557,0 0.79375,-0.0882 0.79375,-0.79375 0,-0.70556 0.0882,-0.79375 0.79375,-0.79375 0.70556,0 0.79375,-0.0882 0.79375,-0.79375 0,-0.70556 0.0882,-0.79375 0.79375,-0.79375 0.70556,0 0.79375,-0.0882 0.79375,-0.79375 0,-0.70556 0.0882,-0.79375 0.79375,-0.79375 0.70556,0 0.79375,-0.0882 0.79375,-0.79375 0,-0.70556 0.0882,-0.79375 0.79375,-0.79375 h 0.79375 v -2.38125 -2.38125 h 0.79375 0.79375 v -2.38125 -2.38125 h 0.79375 0.79375 v -3.96875 -3.96875 h -3.96875 -3.96875 v 0.79375 c 0,0.70556 -0.0882,0.79375 -0.79375,0.79375 -0.70556,0 -0.79375,0.0882 -0.79375,0.79375 0,0.70556 -0.0882,0.79375 -0.79375,0.79375 -0.70556,0 -0.79375,0.0882 -0.79375,0.79375 0,0.70556 -0.0882,0.79375 -0.79375,0.79375 -0.70556,0 -0.79375,0.0882 -0.79375,0.79375 0,0.70556 -0.0882,0.79375 -0.79375,0.79375 -0.70556,0 -0.79375,0.0882 -0.79375,0.79375 0,0.70556 -0.0882,0.79375 -0.79375,0.79375 -0.70556,0 -0.79375,0.0882 -0.79375,0.79375 0,0.70556 -0.0882,0.79375 -0.79375,0.79375 h -0.79375 v 1.5875 1.5875 h -0.79375 c -0.70556,0 -0.79375,0.0882 -0.79375,0.79375 0,0.70556 -0.0882,0.79375 -0.79375,0.79375 h -0.79375 v 1.5875 1.5875 h -0.79375 -0.79375 v 2.38125 2.38125 h 0.79375 c 0.70557,0 0.79375,0.0882 0.79375,0.79375 v 0.79375 h 1.5875 1.5875 v 0.79375 0.79375 h 3.175 3.175 z m -112.7125,0 c 0,-0.70556 0.0882,-0.79375 0.79375,-0.79375 0.70556,0 0.79375,0.0882 0.79375,0.79375 0,0.70556 -0.0882,0.79375 -0.79375,0.79375 -0.70555,0 -0.79375,-0.0882 -0.79375,-0.79375 z m -63.4999939,-6.35 c 0,-0.70556 0.08819,-0.79375 0.79375,-0.79375 0.705557,0 0.79375,0.0882 0.79375,0.79375 0,0.70556 -0.08819,0.79375 -0.79375,0.79375 -0.705556,0 -0.79375,-0.0882 -0.79375,-0.79375 z m -28.5749991,-3.175 c 0,-0.70556 0.08819,-0.79375 0.79375,-0.79375 0.705556,0 0.79375,0.0882 0.79375,0.79375 0,0.70556 -0.08819,0.79375 -0.79375,0.79375 -0.705556,0 -0.79375,-0.0882 -0.79375,-0.79375 z m 26.9874991,-3.175 c 0,-0.70556 0.08819,-0.79375 0.79375,-0.79375 0.705557,0 0.79375,0.0882 0.79375,0.79375 0,0.70556 -0.08819,0.79375 -0.79375,0.79375 -0.705556,0 -0.79375,-0.0882 -0.79375,-0.79375 z m 17.4624999,-4.7625 c 0,-0.70556 0.08819,-0.79375 0.79375,-0.79375 0.705556,0 0.79375,0.0882 0.79375,0.79375 0,0.70556 -0.08819,0.79375 -0.79375,0.79375 -0.705557,0 -0.79375,-0.0882 -0.79375,-0.79375 z m -36.512499,-3.175 c 0,-0.70556 0.08819,-0.79375 0.79375,-0.79375 0.705556,0 0.79375,0.0882 0.79375,0.79375 0,0.70556 -0.08819,0.79375 -0.79375,0.79375 -0.705557,0 -0.79375,-0.0882 -0.79375,-0.79375 z m 14.2874991,-1.5875 c 0,-0.70556 0.08819,-0.79375 0.79375,-0.79375 0.705557,0 0.79375,0.0882 0.79375,0.79375 0,0.70556 -0.08819,0.79375 -0.79375,0.79375 -0.705556,0 -0.79375,-0.0882 -0.79375,-0.79375 z m 4.7625,-4.7625 c 0,-0.70556 0.08819,-0.79375 0.79375,-0.79375 0.705557,0 0.79375,0.0882 0.79375,0.79375 0,0.70556 -0.08819,0.79375 -0.79375,0.79375 -0.705556,0 -0.79375,-0.0882 -0.79375,-0.79375 z m 11.1124999,0 c 0,-0.70556 -0.08819,-0.79375 -0.79375,-0.79375 -0.705556,0 -0.79375,-0.0882 -0.79375,-0.79375 v -0.79375 h 1.5875 1.5875 v 1.5875 1.5875 h -0.79375 c -0.705556,0 -0.79375,-0.0882 -0.79375,-0.79375 z m -49.212498,-1.5875 c 0,-0.70556 0.08819,-0.79375 0.79375,-0.79375 0.705556,0 0.79375,0.0882 0.79375,0.79375 0,0.70556 -0.08819,0.79375 -0.79375,0.79375 -0.705557,0 -0.79375,-0.0882 -0.79375,-0.79375 z m 4.7625,-1.5875 c 0,-0.70556 0.08819,-0.79375 0.79375,-0.79375 0.705556,0 0.79375,0.0882 0.79375,0.79375 0,0.70556 -0.08819,0.79375 -0.79375,0.79375 -0.705557,0 -0.79375,-0.0882 -0.79375,-0.79375 z m 57.149998,-3.175 c 0,-0.70556 0.08819,-0.79375 0.79375,-0.79375 0.705556,0 0.79375,0.0882 0.79375,0.79375 0,0.70556 -0.08819,0.79375 -0.79375,0.79375 -0.705557,0 -0.79375,-0.0882 -0.79375,-0.79375 z m -39.6874985,-1.5875 c 0,-0.70556 0.08819,-0.79375 0.79375,-0.79375 0.705556,0 0.79375,0.0882 0.79375,0.79375 0,0.70556 -0.08819,0.79375 -0.79375,0.79375 -0.705557,0 -0.79375,-0.0882 -0.79375,-0.79375 z m 41.2749985,-3.175 c 0,-0.70556 0.08819,-0.79375 0.79375,-0.79375 0.705556,0 0.79375,0.0882 0.79375,0.79375 0,0.70556 -0.08819,0.79375 -0.79375,0.79375 -0.705557,0 -0.79375,-0.0882 -0.79375,-0.79375 z m -50.799999,-1.5875 c 0,-0.70556 0.08819,-0.79375 0.79375,-0.79375 0.705556,0 0.79375,0.0882 0.79375,0.79375 0,0.70556 -0.08819,0.79375 -0.79375,0.79375 -0.705556,0 -0.79375,-0.0882 -0.79375,-0.79375 z m 58.737498,0 c 0,-0.70556 0.08819,-0.79375 0.79375,-0.79375 0.705557,0 0.79375,0.0882 0.79375,0.79375 0,0.70556 -0.08819,0.79375 -0.79375,0.79375 -0.705556,0 -0.79375,-0.0882 -0.79375,-0.79375 z m -34.9249989,-1.5875 c 0,-0.70556 0.08819,-0.79375 0.79375,-0.79375 0.705557,0 0.79375,0.0882 0.79375,0.79375 0,0.70556 -0.08819,0.79375 -0.79375,0.79375 -0.705556,0 -0.79375,-0.0882 -0.79375,-0.79375 z m 52.3874989,0 c 0,-0.70556 0.08819,-0.79375 0.79375,-0.79375 0.705556,0 0.79375,0.0882 0.79375,0.79375 0,0.70556 -0.08819,0.79375 -0.79375,0.79375 -0.705556,0 -0.79375,-0.0882 -0.79375,-0.79375 z m -58.7374979,-3.175 c 0,-0.70556 0.08819,-0.79375 0.79374999,-0.79375 0.705556,0 0.79375,0.0882 0.79375,0.79375 0,0.70556 -0.08819,0.79375 -0.79375,0.79375 -0.70555699,0 -0.79374999,-0.0882 -0.79374999,-0.79375 z m 38.0999989,0 c 0,-0.70556 0.08819,-0.79375 0.79375,-0.79375 0.705556,0 0.79375,0.0882 0.79375,0.79375 0,0.70556 -0.08819,0.79375 -0.79375,0.79375 -0.705557,0 -0.79375,-0.0882 -0.79375,-0.79375 z m 4.762499,0 c 0,-0.70556 0.08819,-0.79375 0.79375,-0.79375 0.705557,0 0.79375,0.0882 0.79375,0.79375 0,0.70556 -0.08819,0.79375 -0.79375,0.79375 -0.705556,0 -0.79375,-0.0882 -0.79375,-0.79375 z m -31.7499989,-1.5875 c 0,-0.70556 0.08819,-0.79375 0.7937499,-0.79375 0.705557,0 0.79375,0.0882 0.79375,0.79375 0,0.70556 -0.08819,0.79375 -0.79375,0.79375 -0.705556,0 -0.7937499,-0.0882 -0.7937499,-0.79375 z m 7.9374999,-6.35 c 0,-0.70556 0.08819,-0.79375 0.79375,-0.79375 0.705556,0 0.79375,0.0882 0.79375,0.79375 0,0.70556 -0.08819,0.79375 -0.79375,0.79375 -0.705556,0 -0.79375,-0.0882 -0.79375,-0.79375 z m 3.175,-1.5875 c 0,-0.70556 0.08819,-0.79375 0.79375,-0.79375 0.705556,0 0.79375,0.0882 0.79375,0.79375 0,0.70556 -0.08819,0.79375 -0.79375,0.79375 -0.705556,0 -0.79375,-0.0882 -0.79375,-0.79375 z m -39.687499,-1.5875 c 0,-0.70556 0.08819,-0.79375 0.79375,-0.79375 0.705556,0 0.79375,0.0882 0.79375,0.79375 0,0.70556 -0.08819,0.79375 -0.79375,0.79375 -0.705556,0 -0.79375,-0.0882 -0.79375,-0.79375 z m 50.799999,0 c 0,-0.70556 0.08819,-0.79375 0.79375,-0.79375 0.705556,0 0.79375,0.0882 0.79375,0.79375 0,0.70556 -0.08819,0.79375 -0.79375,0.79375 -0.705557,0 -0.79375,-0.0882 -0.79375,-0.79375 z m 104.774994,-1.5875 c 0,-0.70556 -0.0882,-0.79375 -0.79375,-0.79375 -0.70556,0 -0.79375,-0.0882 -0.79375,-0.79375 0,-0.70556 -0.0882,-0.79375 -0.79375,-0.79375 -0.70556,0 -0.79375,-0.0882 -0.79375,-0.79375 0,-0.70556 -0.0882,-0.79375 -0.79375,-0.79375 h -0.79375 v -5.55625 -5.55625 h 0.79375 c 0.70557,0 0.79375,-0.0882 0.79375,-0.79375 v -0.79375 h 3.96875 3.96875 v 0.79375 c 0,0.70556 0.0882,0.79375 0.79375,0.79375 h 0.79375 v -1.5875 -1.5875 h 0.79375 0.79375 v -2.38125 -2.381246 h -0.79375 c -0.70556,0 -0.79375,-0.0882 -0.79375,-0.79375 v -0.79375 h -3.175 -3.175 v -0.79375 -0.79375 h -1.5875 -1.5875 v -0.79375 c 0,-0.70556 -0.0882,-0.79375 -0.79375,-0.79375 -0.70556,0 -0.79375,-0.0882 -0.79375,-0.79375 0,-0.70556 -0.0882,-0.79375 -0.79375,-0.79375 h -0.79375 v -1.5875 -1.5875 h -0.79375 -0.79375 v -2.381247 -2.38125 h -0.79375 -0.79375 v -2.38125 -2.38125 h -0.79375 -0.79375 v -2.38125 -2.38125 h -0.79375 -0.79375 v -7.14375 -7.14375 h 0.79375 c 0.70557,0 0.79375,-0.0882 0.79375,-0.79375 v -0.79375 h 3.96875 3.96875 v 0.79375 c 0,0.70555 0.0882,0.79375 0.79375,0.79375 h 0.79375 v 3.96875 3.96875 h 0.79375 0.79375 v 1.5875 1.5875 h 0.79375 0.79375 v 3.175 3.175 h 0.79375 0.79375 v 1.5875 1.5875 h 0.79375 c 0.70557,0 0.79375,0.0882 0.79375,0.79375 0,0.70556 0.0882,0.79375 0.79375,0.79375 h 0.79375 v -1.5875 -1.5875 h 0.79375 0.79375 v -4.7625 -4.7625 h 0.79375 0.79375 v -1.5875 -1.5875 h 0.79375 c 0.70557,0 0.79375,-0.0882 0.79375,-0.79375 v -0.79375 h 3.96875 3.96875 v 0.79375 c 0,0.70555 0.0882,0.79375 0.79375,0.79375 h 0.79375 v 15.875 15.874997 h -0.79375 -0.79375 v 5.556246 5.55625 h -0.79375 -0.79375 v 4.7625 4.7625 h -0.79375 c -0.70556,0 -0.79375,0.0882 -0.79375,0.79375 0,0.70556 -0.0882,0.79375 -0.79375,0.79375 -0.70556,0 -0.79375,0.0882 -0.79375,0.79375 v 0.79375 h -7.14375 -7.14375 z M 6.8035761,119.34598 c 0,-0.70556 0.08819,-0.79375 0.79375,-0.79375 0.705557,0 0.79375,0.0882 0.79375,0.79375 0,0.70556 -0.08819,0.79375 -0.79375,0.79375 -0.705556,0 -0.79375,-0.0882 -0.79375,-0.79375 z m 41.2749989,-1.5875 c 0,-0.70556 0.08819,-0.79375 0.79375,-0.79375 0.705557,0 0.79375,0.0882 0.79375,0.79375 0,0.70556 -0.08819,0.79375 -0.79375,0.79375 -0.705556,0 -0.79375,-0.0882 -0.79375,-0.79375 z m -14.287499,-1.5875 c 0,-0.70556 0.08819,-0.79375 0.79375,-0.79375 0.705556,0 0.79375,0.0882 0.79375,0.79375 0,0.70556 -0.08819,0.79375 -0.79375,0.79375 -0.705557,0 -0.79375,-0.0882 -0.79375,-0.79375 z m -6.35,-1.5875 c 0,-0.70556 0.08819,-0.79375 0.79375,-0.79375 0.705556,0 0.79375,0.0882 0.79375,0.79375 0,0.70556 -0.08819,0.79375 -0.79375,0.79375 -0.705557,0 -0.79375,-0.0882 -0.79375,-0.79375 z m 217.487494,-11.1125 c 0,-0.70556 -0.0882,-0.79375 -0.79375,-0.79375 h -0.79375 v -1.5875 -1.587496 h -0.79375 -0.79375 v -1.5875 -1.5875 h -1.5875 -1.5875 v 0.79375 c 0,0.70556 -0.0882,0.79375 -0.79375,0.79375 -0.70557,0 -0.79375,0.0882 -0.79375,0.79375 v 0.79375 h -6.35 -6.35 v -0.79375 c 0,-0.70556 -0.0882,-0.79375 -0.79375,-0.79375 -0.70556,0 -0.79375,-0.0882 -0.79375,-0.79375 0,-0.70556 -0.0882,-0.79375 -0.79375,-0.79375 -0.70556,0 -0.79375,-0.0882 -0.79375,-0.79375 0,-0.70556 -0.0882,-0.79375 -0.79375,-0.79375 -0.70556,0 -0.79375,-0.0882 -0.79375,-0.79375 0,-0.70556 -0.0882,-0.79375 -0.79375,-0.79375 h -0.79375 v -3.175 -3.174997 h -0.79375 -0.79375 v -6.35 -6.35 h 0.79375 0.79375 v -1.5875 -1.5875 h 0.79375 c 0.70556,0 0.79375,-0.0882 0.79375,-0.79375 v -0.79375 h 3.96875 3.96875 v 0.79375 c 0,0.70555 0.0882,0.79375 0.79375,0.79375 h 0.79375 v 7.14375 7.14375 h 1.5875 1.5875 v -0.79375 c 0,-0.70556 0.0882,-0.79375 0.79375,-0.79375 0.70556,0 0.79375,-0.0882 0.79375,-0.79375 0,-0.70556 0.0882,-0.79375 0.79375,-0.79375 0.70556,0 0.79375,-0.0882 0.79375,-0.79375 0,-0.70556 0.0882,-0.79375 0.79375,-0.79375 h 0.79375 v -1.5875 -1.5875 h 0.79375 0.79375 v -2.38125 -2.38125 h 0.79375 c 0.70556,0 0.79375,-0.0882 0.79375,-0.79375 v -0.79375 h 3.96875 3.96875 v 0.79375 c 0,0.70555 0.0882,0.79375 0.79375,0.79375 h 0.79375 v 4.7625 4.7625 h 0.79375 0.79375 v 3.175 3.174997 h 0.79375 0.79375 v 2.38125 2.38125 h 0.79375 0.79375 v 4.7625 4.762496 h -0.79375 c -0.70557,0 -0.79375,0.0882 -0.79375,0.79375 v 0.79375 h -3.96875 -3.96875 z m -66.675,-4.762496 c 0,-0.70556 -0.0882,-0.79375 -0.79375,-0.79375 h -0.79375 v -1.5875 -1.5875 h -0.79375 -0.79375 v -11.112497 -11.1125 h 0.79375 0.79375 v -1.5875 -1.5875 h 0.79375 c 0.70557,0 0.79375,-0.0882 0.79375,-0.79375 v -0.79375 h 1.5875 1.5875 v -0.79375 c 0,-0.70556 0.0882,-0.79375 0.79375,-0.79375 0.70557,0 0.79375,-0.0882 0.79375,-0.79375 v -0.79375 h 9.525 9.525 v 0.79375 c 0,0.70555 0.0882,0.79375 0.79375,0.79375 0.70556,0 0.79375,0.0882 0.79375,0.79375 0,0.70555 0.0882,0.79375 0.79375,0.79375 h 0.79375 v 1.5875 1.5875 h 0.79375 0.79375 v 8.73125 8.731247 h -0.79375 -0.79375 v 1.5875 1.5875 h -0.79375 -0.79375 v 1.5875 1.5875 h -0.79375 c -0.70556,0 -0.79375,0.0882 -0.79375,0.79375 0,0.70556 -0.0882,0.79375 -0.79375,0.79375 -0.70556,0 -0.79375,0.0882 -0.79375,0.79375 0,0.70556 -0.0882,0.79375 -0.79375,0.79375 -0.70556,0 -0.79375,0.0882 -0.79375,0.79375 v 0.79375 h -10.31875 -10.31875 z m 12.7,-11.112497 c 0,-0.70556 0.0882,-0.79375 0.79375,-0.79375 0.70556,0 0.79375,-0.0882 0.79375,-0.79375 0,-0.70556 0.0882,-0.79375 0.79375,-0.79375 h 0.79375 v -2.38125 -2.38125 h 0.79375 0.79375 v -1.5875 -1.5875 h -0.79375 c -0.70556,0 -0.79375,-0.0882 -0.79375,-0.79375 v -0.79375 h -1.5875 -1.5875 v 0.79375 0.79375 h -1.5875 -1.5875 v 0.79375 c 0,0.70556 -0.0882,0.79375 -0.79375,0.79375 h -0.79375 v 3.96875 3.96875 h 0.79375 c 0.70556,0 0.79375,0.0882 0.79375,0.79375 v 0.793747 h 1.5875 1.5875 z m 79.375,11.112497 c 0,-0.70556 -0.0882,-0.79375 -0.79375,-0.79375 h -0.79375 v -11.112497 -11.1125 h -0.79375 -0.79375 v -3.96875 -3.96875 h 0.79375 c 0.70556,0 0.79375,-0.0882 0.79375,-0.79375 v -0.79375 h 1.5875 1.5875 v -3.175 -3.175 h 0.79375 0.79375 v -2.38125 -2.38125 h 0.79375 c 0.70556,0 0.79375,-0.0882 0.79375,-0.79375 0,-0.70556 0.0882,-0.79375 0.79375,-0.79375 0.70556,0 0.79375,-0.0882 0.79375,-0.79375 0,-0.70556 0.0882,-0.79375 0.79375,-0.79375 0.70556,0 0.79375,-0.0882 0.79375,-0.79375 0,-0.70556 0.0882,-0.79375 0.79375,-0.79375 0.70556,0 0.79375,-0.0882 0.79375,-0.79375 v -0.79375 h 4.7625 4.7625 v 0.79375 c 0,0.70555 0.0882,0.79375 0.79375,0.79375 0.70556,0 0.79375,0.0882 0.79375,0.79375 0,0.70555 0.0882,0.79375 0.79375,0.79375 h 0.79375 v 5.55625 5.55625 h -0.79375 c -0.70557,0 -0.79375,0.0882 -0.79375,0.79375 v 0.79375 h -3.175 -3.175 v 0.79375 c 0,0.70555 -0.0882,0.79375 -0.79375,0.79375 h -0.79375 v 3.175 3.175 h -0.79375 -0.79375 v 7.9375 7.937497 h -0.79375 -0.79375 v 4.7625 4.7625 h -0.79375 c -0.70557,0 -0.79375,0.0882 -0.79375,0.79375 v 0.79375 h -3.96875 -3.96875 z m -290.512493,-1.5875 c 0,-0.70556 0.08819,-0.79375 0.79375,-0.79375 0.705556,0 0.79375,0.0882 0.79375,0.79375 0,0.70556 -0.08819,0.79375 -0.79375,0.79375 -0.705556,0 -0.79375,-0.0882 -0.79375,-0.79375 z M 22.678576,79.658487 c 0,-0.70556 0.08819,-0.79375 0.79375,-0.79375 0.705556,0 0.79375,0.0882 0.79375,0.79375 0,0.70556 -0.08819,0.79375 -0.79375,0.79375 -0.705557,0 -0.79375,-0.0882 -0.79375,-0.79375 z"
       id="path847" />
  </g>
</svg>
