<svg width="256" height="256" viewBox="0 0 256 256" fill="none" xmlns="http://www.w3.org/2000/svg">
<g clip-path="url(#clip0_4956_8322)">
<path fill-rule="evenodd" clip-rule="evenodd" d="M152.811 56.1527C152.825 56.1278 152.857 56.1193 152.882 56.1337L158.42 59.3312L79.608 104.708C78.542 105.322 77.8911 106.464 77.9061 107.694L78.2404 134.942C78.2723 137.539 81.0872 139.141 83.336 137.843L188.871 76.9119L233.965 102.947C236.23 104.254 239.061 102.62 239.061 100.005V65.8404C239.061 64.6266 238.413 63.5051 237.362 62.8983L129.699 0.738647C128.647 0.13179 127.352 0.13179 126.301 0.73864L18.6377 62.8983C17.5866 63.5051 16.9391 64.6266 16.9391 65.8403V113.019C16.9391 114.233 17.5866 115.354 18.6377 115.961L48.3291 133.104C50.5939 134.411 53.4249 132.777 53.4249 130.162V86.9054C53.4249 85.6917 54.0724 84.5702 55.1235 83.9633L126.301 42.8688C127.352 42.2619 128.647 42.2619 129.699 42.8688L152.74 56.1718C152.765 56.1861 152.797 56.1776 152.811 56.1527ZM110.65 204.095C110.644 204.091 110.636 204.089 110.629 204.089C110.614 204.089 110.6 204.097 110.592 204.111C110.58 204.131 110.554 204.138 110.534 204.126L97.5304 196.618L176.968 150.697C178.018 150.09 178.665 148.969 178.665 147.756V120.576C178.665 117.96 175.834 116.326 173.569 117.634L67.1466 179.076L22.0349 153.031C19.7701 151.724 16.9391 153.358 16.9391 155.973V190.16C16.9391 191.373 17.5866 192.495 18.6377 193.102L126.301 255.261C127.352 255.868 128.647 255.868 129.699 255.261L237.362 193.102C238.413 192.495 239.061 191.373 239.061 190.16V142.959C239.061 141.745 238.413 140.624 237.362 140.017L207.671 122.874C205.406 121.567 202.575 123.201 202.575 125.816V169.095C202.575 170.308 201.928 171.43 200.876 172.037L129.699 213.131C128.647 213.738 127.352 213.738 126.301 213.131L110.65 204.095Z" fill="#3D73FF"/>
</g>
<defs>
<clipPath id="clip0_4956_8322">
<rect width="256" height="256" fill="white"/>
</clipPath>
</defs>
</svg>
